# xmcd
#
# Track frame offsets: 
#        150
#        22971
#        42627
#        57535
#        74466
#        83022
#        105676
#        128687
#        147255
#        170263
#        197097
#
# Disc length: 2769 seconds
#
# Revision: 1
# Processed by: cddbd v1.5.2PL0 Copyright (c) Steve Scherf et al.
# Submitted via: ExactAudioCopy v0.95a5
#
DISCID=990acf0b
DTITLE=Ureal Overflows - Architecture Of Incomprehension
DYEAR=2006
DGENRE=Death Metal
TTITLE0=Paths To The Human Involution
TTITLE1=The Unavoidable Passage Of Time
TTITLE2=Crematory Of Forgotten Cries
TTITLE3=Breeders Of Credibility
TTITLE4=Unexpected Dimensions
TTITLE5=What To Do When...
TTITLE6=Is There Anybody Outside?
TTITLE7=Psycho-Thought
TTITLE8=Pain Of An Afflicted Soul
TTITLE9=In Darkness I Dwell 2005
TTITLE10=Under The Quiet Silence
EXTD=
EXTT0=
EXTT1=
EXTT2=
EXTT3=
EXTT4=
EXTT5=
EXTT6=
EXTT7=
EXTT8=
EXTT9=
EXTT10=
PLAYORDER=
